<?xml version="1.0" encoding="utf-8"?>
<!-- Generator: Adobe Illustrator 19.1.0, SVG Export Plug-In . SVG Version: 6.00 Build 0)  -->
<svg version="1.1" id="Layer_1" xmlns="http://www.w3.org/2000/svg" xmlns:xlink="http://www.w3.org/1999/xlink" x="0px" y="0px"
	 viewBox="-383 295 24 24" style="enable-background:new -383 295 24 24;" xml:space="preserve">
<style type="text/css">
	.st0{fill:#807E7C;}
</style>
<g>
	<path class="st0" d="M-377.6,312.2l-2.7-14.3h-2.7v-2.5h5l2.7,14.4h11.5l2.2-10.7h2.6l-2.8,13.1H-377.6z M-376,313.2
		c1.2,0,2.2,0.9,2.2,2.2c0,1.1-0.9,2.2-2.2,2.2c-1.1,0-2.2-1-2.2-2.2C-378.2,314.1-377.1,313.2-376,313.2z M-374.8,300.4h4.2v-5.1
		h2.5v5.1h4.2l-5.4,7.6L-374.8,300.4z M-363.6,313.2c1.2,0,2.2,0.9,2.2,2.2c0,1.1-1,2.2-2.2,2.2c-1.1,0-2.2-1-2.2-2.2
		C-365.8,314.1-364.8,313.2-363.6,313.2z"/>
</g>
</svg>
