<?xml version="1.0" encoding="utf-8"?>
<!-- Generator: Adobe Illustrator 19.1.0, SVG Export Plug-In . SVG Version: 6.00 Build 0)  -->
<svg version="1.1" id="Layer_1" xmlns="http://www.w3.org/2000/svg" xmlns:xlink="http://www.w3.org/1999/xlink" x="0px" y="0px"
	 viewBox="0 0 40 14" style="enable-background:new 0 0 40 14;" xml:space="preserve">
<style type="text/css">
	.st0{fill:#FFFFFF;}
</style>
<g>
	<path class="st0" d="M29.4,13.8l-0.3-0.2c0.3-1.3,2.6-4.1,4.5-6.2H18L10.9,13H9.3l7.2-5.6h-1.3L8,13H6.5l7.2-5.6h-1.3L5.1,13H3.6
		l7.2-5.6H9.5L2.3,13H0.8l7.3-5.6H6.9V6.7h1.1L0.8,1.1h1.5l7.2,5.6h1.3L3.6,1.1h1.6l7.2,5.6h1.3L6.5,1.1H8l7.2,5.6h1.3L9.3,1.1h1.5
		L18,6.6h15.7c-1.9-2-4.3-4.9-4.5-6.3l0.3-0.2C33,3,34.8,4.4,39.2,6.9v0.2C35.2,9.4,33.3,10.8,29.4,13.8z"/>
</g>
</svg>
