<?xml version="1.0" encoding="utf-8"?>
<!-- Generator: Adobe Illustrator 19.1.0, SVG Export Plug-In . SVG Version: 6.00 Build 0)  -->
<svg version="1.1" id="Layer_1" xmlns="http://www.w3.org/2000/svg" xmlns:xlink="http://www.w3.org/1999/xlink" x="0px" y="0px"
	 viewBox="0 0 24 24" style="enable-background:new 0 0 24 24;" xml:space="preserve">
<style type="text/css">
	.st0{fill:#FFFFFF;}
</style>
<g>
	<path class="st0" d="M5.4,17.2L2.7,2.9h-2.7V0.4h5l2.7,14.4h11.5l2.2-10.7h2.6l-2.8,13.1H5.4z M7,18.2c1.2,0,2.2,0.9,2.2,2.2
		c0,1.1-0.9,2.2-2.2,2.2c-1.1,0-2.2-1-2.2-2.2C4.8,19.1,5.9,18.2,7,18.2z M8.2,5.4h4.2V0.3h2.5v5.1h4.2L13.7,13L8.2,5.4z M19.4,18.2
		c1.2,0,2.2,0.9,2.2,2.2c0,1.1-1,2.2-2.2,2.2c-1.1,0-2.2-1-2.2-2.2C17.2,19.1,18.2,18.2,19.4,18.2z"/>
</g>
</svg>
