<?xml version="1.0" encoding="utf-8"?>
<!-- Generator: Adobe Illustrator 19.1.0, SVG Export Plug-In . SVG Version: 6.00 Build 0)  -->
<svg version="1.1" id="Layer_1" xmlns="http://www.w3.org/2000/svg" xmlns:xlink="http://www.w3.org/1999/xlink" x="0px" y="0px"
	 viewBox="0 0 28 28" style="enable-background:new 0 0 28 28;" xml:space="preserve">
<style type="text/css">
	.st0{fill:#FFFFFF;}
</style>
<path class="st0" d="M27.2,23.6l-6.7-6.7c1-1.7,1.6-3.6,1.6-5.7c0-6-5.2-11.2-11.2-11.2C4.8,0,0,4.9,0,10.9c0,6,5.2,11.2,11.2,11.2
	c2,0,3.9-0.5,5.5-1.5l6.7,6.7c0.7,0.7,1.7,0.7,2.4,0l1.7-1.7C28.1,25.1,27.8,24.3,27.2,23.6L27.2,23.6L27.2,23.6z M3.3,10.9
	c0-4.2,3.4-7.5,7.6-7.5c4.2,0,7.9,3.7,7.9,7.9c0,4.2-3.4,7.6-7.6,7.6S3.3,15.1,3.3,10.9L3.3,10.9z"/>
</svg>
