<?xml version="1.0" encoding="utf-8"?>

<svg data-name="Layer 1" xmlns="http://www.w3.org/2000/svg" viewBox="0 0 462.14 462.14"><path d="M439.6 356.46c-13.83-29.06-57.6-44.67-117.46-58.07-25-5.59-48.92-8-51.9-17.13S268 248.44 268 248.44c14.26-12.85 39.82-39.39 46-58.5 9.24-28.6 4.62-70.83-3.3-97.23s-43.35-61.6-79.65-61.6-71.69 35.21-79.63 61.6-12.53 68.63-3.29 97.23c6.16 19.11 31.73 45.65 46 58.5 0 0 .79 23.67-2.21 32.82S165 292.8 140 298.39c-59.85 13.4-103.61 29-117.47 58.07S12 427.73 12 431h438.15c0-3.27 3.33-45.51-10.55-74.54z" fill="#fff"/></svg>