<?xml version="1.0" encoding="utf-8"?>
<!-- Generator: Adobe Illustrator 19.1.0, SVG Export Plug-In . SVG Version: 6.00 Build 0)  -->

<svg data-name="Layer 1" xmlns="http://www.w3.org/2000/svg" viewBox="0 0 462.14 462.14"><path d="M116.47 337.27L68.79 86.11H21.11V42.57h86.81l47.68 251.52h201.23l38.32-186.57H441l-49.45 229.75zm29 16.1c21.86 0 38.32 16.47 38.32 37.87 0 20.07-16.46 38.33-38.32 38.33-20.06 0-38.32-18.26-38.32-38.33-.04-21.4 18.22-37.87 38.28-37.87zm216 0c21.32 0 38.23 16.47 38.23 37.87 0 20.07-16.91 38.33-38.23 38.33-20.06 0-38.32-18.26-38.32-38.33-.05-21.4 18.21-37.87 38.27-37.87z" fill="#fff"/></svg>